<svg xmlns="http://www.w3.org/2000/svg" version="1.1" xmlns:xlink="http://www.w3.org/1999/xlink" width="512" height="512" x="0" y="0" viewBox="0 0 512 512" style="enable-background:new 0 0 512 512" xml:space="preserve" class=""><g><path fill="#ed5152" d="M503.94 49.21 462.8 8.07a27.57 27.57 0 0 0-39 0L385.88 46a7.5 7.5 0 0 0 0 10.61l69.51 69.5a7.48 7.48 0 0 0 10.6 0l37.95-37.94a27.59 27.59 0 0 0 0-38.96z" opacity="1" data-original="#ed5152"></path><path fill="#d53d46" d="M423.82 29.29a27.55 27.55 0 0 1 39 0l41.14 41.13a27.71 27.71 0 0 1 5.95 8.89 27.62 27.62 0 0 0-5.95-30.1L462.8 8.07a27.57 27.57 0 0 0-39 0L385.88 46a7.5 7.5 0 0 0 0 10.61l5.3 5.3z" opacity="1" data-original="#d53d46"></path><path fill="#576473" d="M381.59 197.77a7.5 7.5 0 0 0 0-10.61l-56.74-56.74a7.5 7.5 0 0 0-10.61 0L44 400.65a7.52 7.52 0 0 0 0 10.61L100.75 468a7.52 7.52 0 0 0 10.61 0z" opacity="1" data-original="#576473" class=""></path><path fill="#3b4855" d="M54.61 411.25 324.85 141a7.5 7.5 0 0 1 10.61 0l-10.61-10.61a7.5 7.5 0 0 0-10.61 0L44 400.65a7.52 7.52 0 0 0 0 10.61l10.61 10.6a7.5 7.5 0 0 1 0-10.61z" opacity="1" data-original="#3b4855" class=""></path><path fill="#fcc855" d="m431.24 219.05 49.65-49.65a27.57 27.57 0 0 0 0-39l-99.3-99.3a27.61 27.61 0 0 0-39 0L293 80.77a27.61 27.61 0 0 0 0 39l99.3 99.3a27.57 27.57 0 0 0 39 0z" opacity="1" data-original="#fcc855" class=""></path><path fill="#f4b537" d="m293 102 49.65-49.65a27.59 27.59 0 0 1 39 0l99.3 99.29a27.42 27.42 0 0 1 6 8.89 27.62 27.62 0 0 0-6-30.1l-99.3-99.3a27.61 27.61 0 0 0-39 0L293 80.77a27.6 27.6 0 0 0-5.94 30.1A27.37 27.37 0 0 1 293 102z" opacity="1" data-original="#f4b537" class=""></path><path fill="#ed5152" d="M155.4 434.32a77.67 77.67 0 1 0-22.77 54.95 77.2 77.2 0 0 0 22.77-54.95z" opacity="1" data-original="#ed5152"></path><path fill="#d53d46" d="M43.94 489.27a77.71 77.71 0 0 1 44.35-131.93 79.45 79.45 0 0 0-10.61-.73 77.7 77.7 0 1 0 0 155.39 78.6 78.6 0 0 0 10.61-.73 77.26 77.26 0 0 1-44.35-22z" opacity="1" data-original="#d53d46"></path><path fill="#e3e9f7" d="M115.27 434.32a37.57 37.57 0 1 0-11 26.58 37.34 37.34 0 0 0 11-26.58z" opacity="1" data-original="#e3e9f7"></path><path fill="#c5cfe2" d="M72.31 460.9a37.6 37.6 0 0 1 16-62.65 37.59 37.59 0 1 0 0 72.13 37.38 37.38 0 0 1-16-9.48z" opacity="1" data-original="#c5cfe2"></path><g fill="#fcc855"><path d="m229.13 183.58 99.3 99.3a27.58 27.58 0 0 0 39 0 27.55 27.55 0 0 0 0-39l-99.29-99.29a27.56 27.56 0 0 0-39 39zM310.66 300.64l-99.3-99.29a27.56 27.56 0 1 0-39 39l99.3 99.3a27.59 27.59 0 0 0 39 0 27.59 27.59 0 0 0 0-39.01zM253.92 357.38l-99.3-99.29a27.56 27.56 0 1 0-39 39l99.3 99.3a27.59 27.59 0 0 0 39 0 27.59 27.59 0 0 0 0-39.01z" fill="#fcc855" opacity="1" data-original="#fcc855" class=""></path></g><g fill="#f4b537"><path d="M373.37 274a27.52 27.52 0 0 0-6-8.88l-99.29-99.29a27.59 27.59 0 0 0-39 0 27.06 27.06 0 0 0-5.94 8.88 27.56 27.56 0 0 1 44.92-30.09l99.34 99.28a27.6 27.6 0 0 1 6 30zM316.6 330.74a27.52 27.52 0 0 0-5.94-8.89l-99.3-99.29a27.58 27.58 0 0 0-44.94 8.89 27.57 27.57 0 0 1 44.94-30.1l99.3 99.29a27.6 27.6 0 0 1 5.94 30.1zM259.85 387.48a27.06 27.06 0 0 0-5.94-8.88l-99.29-99.29a27.54 27.54 0 0 0-44.92 8.88 27.56 27.56 0 0 1 44.92-30.1l99.29 99.29a27.54 27.54 0 0 1 5.94 30.1z" fill="#f4b537" opacity="1" data-original="#f4b537" class=""></path></g></g></svg>